<?xml version="1.0" encoding="utf-8"?>
<!-- Generator: Adobe Illustrator 16.0.0, SVG Export Plug-In . SVG Version: 6.00 Build 0)  -->
<!DOCTYPE svg PUBLIC "-//W3C//DTD SVG 1.1//EN" "http://www.w3.org/Graphics/SVG/1.1/DTD/svg11.dtd">
<svg version="1.1" id="Layer_1" xmlns="http://www.w3.org/2000/svg" xmlns:xlink="http://www.w3.org/1999/xlink" x="0px" y="0px"
	 width="360px" height="100px" viewBox="0 0 360 100" enable-background="new 0 0 360 100" xml:space="preserve">
<g>
	<path fill="#4388BD" d="M50,0C22.386,0,0,22.387,0,50c0,20.535,12.38,38.18,30.083,45.877C36.187,98.529,42.92,100,50,100
		c27.613,0,50-22.385,50-50C100,22.387,77.613,0,50,0z"/>
	<polygon fill="#FFCC00" points="63.769,10.721 63.769,10.721 30.941,52.658 47.822,52.682 34.403,89.281 69.059,42.436 
		51.721,42.436 	"/>
	<g>
		<defs>
			<path id="SVGID_1_" d="M50,0C22.386,0,0,22.387,0,50c0,20.535,12.38,38.18,30.083,45.877C36.187,98.529,42.92,100,50,100
				c27.613,0,50-22.385,50-50C100,22.387,77.613,0,50,0z"/>
		</defs>
		<clipPath id="SVGID_2_">
			<use xlink:href="#SVGID_1_"  overflow="visible"/>
		</clipPath>
		<g clip-path="url(#SVGID_2_)">
			<defs>
				<path id="SVGID_3_" d="M47.327,1.65c-27.614,0-50,22.387-50,50.002c0,20.535,12.38,38.178,30.083,45.875
					c6.103,2.652,12.838,4.123,19.917,4.123c27.614,0,50-22.385,50-49.998C97.327,24.037,74.941,1.65,47.327,1.65z"/>
			</defs>
			<clipPath id="SVGID_4_">
				<use xlink:href="#SVGID_3_"  overflow="visible"/>
			</clipPath>
			<g opacity="0.2" clip-path="url(#SVGID_4_)">
				<polyline points="29.939,96.375 34.403,89.281 47.822,52.682 30.941,52.678 63.64,10.885 1.103,61.883 4.062,71.838 
					13.208,85.184 23.711,92.969 				"/>
				<polyline points="29.939,96.375 34.403,89.281 47.822,52.682 30.941,52.678 63.64,10.885 1.103,61.883 4.062,71.838 
					13.208,85.184 23.711,92.969 				"/>
			</g>
		</g>
	</g>
</g>
<g>
	<g>
		<path fill="#333333" d="M135.566,55.582c5.124,0,9.288,1.521,12.492,4.566c3.202,3.043,4.804,6.898,4.804,11.564
			c0,4.465-1.585,8.373-4.754,11.721c-3.17,3.348-7.015,5.021-11.531,5.021h-12.644h-8.193v-13.25l19.421,0.1
			c0.875,0,1.618-0.357,2.225-1.076c0.607-0.721,0.91-1.559,0.91-2.52c0-1.918-1.282-2.877-3.843-2.877
			c-5.193,0-9.492-1.725-12.897-5.174c-3.406-3.449-5.107-7.609-5.107-12.48c0-4.26,1.719-7.979,5.158-11.16
			c3.439-3.178,7.384-4.768,11.834-4.768h32.773l-13.857,13.758h-19.421c-0.809,0-1.534,0.223-2.174,0.668
			c-0.642,0.445-0.961,1.111-0.961,2.002c0,1.508,0.506,2.535,1.518,3.082C132.598,55.307,134.014,55.582,135.566,55.582z"/>
		<path fill="#333333" d="M156.383,48.982l13.655-13.756h32.539L188.86,48.982H156.383z M169.602,49.008l14.566-13.781v13.812
			v39.416h-14.566V49.008z"/>
		<path fill="#333333" d="M246.658,61.65c0,8.43-2.716,15.09-8.143,19.977c-5.429,4.891-11.818,7.334-19.168,7.334
			c-7.485,0-13.908-2.393-19.27-7.182c-5.361-4.787-8.041-11.496-8.041-20.129c0-8.562,2.713-15.256,8.143-20.078
			c5.428-4.82,11.816-7.232,19.168-7.232c7.551,0,13.992,2.395,19.319,7.182C243.993,46.311,246.658,53.02,246.658,61.65z
			 M205.793,61.65c0,4.113,1.331,7.369,3.996,9.762c2.662,2.395,5.781,3.59,9.355,3.59c3.709,0,6.861-1.162,9.458-3.49
			c2.596-2.326,3.895-5.613,3.895-9.861c0-4.113-1.333-7.365-3.995-9.76c-2.665-2.393-5.783-3.592-9.357-3.592
			c-3.709,0-6.861,1.146-9.457,3.439C207.091,54.031,205.793,57.336,205.793,61.65z"/>
		<path fill="#333333" d="M250.318,49.826l14.465-14.6v53.127h-14.465V49.826z M278.843,35.227c5.326,0,9.609,1.404,12.846,4.213
			c3.237,2.809,4.855,6.988,4.855,12.539c0,4.738-1.585,8.699-4.754,11.879c-3.171,3.182-7.351,4.773-12.543,4.773h-1.112
			c-0.404,0-0.826-0.051-1.265-0.152s-0.708-0.186-0.81-0.254c-0.101-0.066-0.15-0.135-0.15-0.201l0.404-0.305l0.809-0.404
			l-8.666-6.709l6.56,0.035c2.151,0,3.798-0.535,4.942-1.602c1.145-1.064,1.716-2.562,1.716-4.486c0-1.719-0.522-3.078-1.567-4.074
			c-1.047-0.996-2.749-1.496-5.108-1.496h-10.216V35.227H278.843z M296.138,88.736l-28.22-28.096l17.322-0.027l10.907,11.145
			L296.138,88.736z"/>
		<path fill="#333333" d="M299.619,71.664l36.616-36.438l0.016,22.799l23.046-22.635V88.43h-13.857V65.293l-23.262,23.139
			l-0.024-22.352l-22.569,22.316L299.619,71.664z"/>
	</g>
	<g>
		<path fill="#AAAAAA" stroke="#AAAAAA" stroke-width="0.5" stroke-miterlimit="10" d="M123.917,26.105
			c0.804,0,1.551-0.129,2.244-0.385c0.691-0.258,1.322-0.607,1.892-1.055c0.57-0.445,1.061-0.977,1.474-1.59s0.72-1.279,0.921-1.992
			h1.674c-0.201,0.959-0.559,1.846-1.072,2.66c-0.514,0.816-1.128,1.523-1.842,2.127c-0.714,0.604-1.523,1.072-2.427,1.406
			c-0.905,0.334-1.859,0.502-2.863,0.502c-1.184,0-2.284-0.217-3.298-0.652c-1.017-0.436-1.898-1.027-2.646-1.773
			c-0.748-0.75-1.338-1.631-1.774-2.646s-0.653-2.115-0.653-3.299c0-1.16,0.218-2.254,0.653-3.281
			c0.436-1.025,1.026-1.914,1.774-2.662c0.748-0.748,1.629-1.34,2.646-1.775c1.015-0.436,2.115-0.652,3.298-0.652
			c1.004,0,1.958,0.168,2.863,0.502c0.904,0.336,1.712,0.805,2.427,1.406c0.714,0.604,1.328,1.312,1.842,2.127
			c0.513,0.814,0.871,1.703,1.072,2.662h-1.674c-0.201-0.713-0.508-1.379-0.921-1.994c-0.413-0.611-0.904-1.143-1.474-1.588
			c-0.569-0.447-1.201-0.799-1.892-1.057c-0.693-0.256-1.439-0.385-2.244-0.385c-0.916,0-1.781,0.18-2.595,0.537
			c-0.815,0.357-1.524,0.836-2.126,1.439s-1.083,1.311-1.44,2.127c-0.357,0.814-0.536,1.68-0.536,2.594
			c0,0.916,0.179,1.781,0.536,2.596s0.837,1.523,1.44,2.125c0.603,0.604,1.312,1.084,2.126,1.441
			C122.136,25.928,123.001,26.105,123.917,26.105z"/>
		<path fill="#AAAAAA" stroke="#AAAAAA" stroke-width="0.5" stroke-miterlimit="10" d="M142.501,27.779
			c-1.184,0-2.284-0.217-3.299-0.652c-1.016-0.436-1.897-1.027-2.645-1.773c-0.748-0.75-1.339-1.631-1.774-2.646
			c-0.436-1.016-0.653-2.115-0.653-3.299v-8.371h1.674v8.371c0,0.916,0.179,1.781,0.536,2.596c0.356,0.814,0.836,1.523,1.439,2.125
			c0.603,0.604,1.311,1.084,2.126,1.441c0.814,0.357,1.68,0.535,2.596,0.535c0.915,0,1.78-0.178,2.595-0.535
			s1.524-0.838,2.126-1.441c0.604-0.602,1.083-1.311,1.44-2.125c0.357-0.814,0.536-1.68,0.536-2.596v-8.371h1.674v8.371
			c0,1.184-0.223,2.283-0.67,3.299s-1.055,1.896-1.824,2.646c-0.771,0.746-1.658,1.338-2.663,1.773
			C144.711,27.562,143.64,27.779,142.501,27.779z"/>
		<path fill="#AAAAAA" stroke="#AAAAAA" stroke-width="0.5" stroke-miterlimit="10" d="M161.252,26.105
			c1.429,0,2.69-0.379,3.785-1.139c1.093-0.76,1.896-1.773,2.411-3.047h1.842c-0.29,0.85-0.698,1.629-1.224,2.344
			c-0.524,0.715-1.138,1.328-1.841,1.842s-1.479,0.922-2.327,1.223c-0.849,0.301-1.73,0.451-2.646,0.451
			c-1.183,0-2.282-0.217-3.298-0.652c-1.016-0.436-1.898-1.027-2.646-1.773c-0.748-0.75-1.338-1.631-1.775-2.646
			c-0.435-1.016-0.652-2.115-0.652-3.299c0-1.16,0.217-2.254,0.652-3.281c0.437-1.025,1.027-1.914,1.775-2.662
			s1.629-1.34,2.646-1.775c1.016-0.436,2.115-0.652,3.298-0.652c1.161,0,2.255,0.217,3.282,0.652
			c1.027,0.436,1.914,1.027,2.662,1.775s1.34,1.637,1.775,2.662c0.436,1.027,0.652,2.121,0.652,3.281v0.838h-3.014h-12.055
			c0.134,0.848,0.396,1.629,0.787,2.344c0.39,0.715,0.888,1.328,1.49,1.842s1.278,0.922,2.027,1.221
			C159.606,25.953,160.404,26.105,161.252,26.105z M161.252,12.711c-0.849,0-1.646,0.152-2.393,0.453
			c-0.749,0.301-1.424,0.709-2.027,1.221c-0.603,0.516-1.101,1.135-1.49,1.859c-0.39,0.727-0.652,1.502-0.787,2.328h13.395
			c-0.134-0.826-0.396-1.602-0.787-2.328c-0.391-0.725-0.888-1.344-1.49-1.859c-0.602-0.512-1.284-0.92-2.042-1.221
			C162.871,12.863,162.079,12.711,161.252,12.711z"/>
		<path fill="#AAAAAA" stroke="#AAAAAA" stroke-width="0.5" stroke-miterlimit="10" d="M173.273,27.779h-1.641V11.037h1.641v14.6
			L185.8,13.145l1.078,1.357L173.273,27.779z"/>
		<path fill="#AAAAAA" stroke="#AAAAAA" stroke-width="0.5" stroke-miterlimit="10" d="M210.158,11.037
			c1.138,0,2.209,0.223,3.213,0.67c1.006,0.447,1.892,1.055,2.663,1.824c0.769,0.771,1.377,1.658,1.824,2.662
			c0.446,1.006,0.67,2.076,0.67,3.215v8.371h-1.675v-8.371c0-0.914-0.178-1.779-0.535-2.594c-0.357-0.816-0.838-1.523-1.439-2.127
			c-0.604-0.604-1.312-1.082-2.126-1.439c-0.816-0.357-1.681-0.537-2.595-0.537c-0.917,0-1.782,0.18-2.597,0.537
			c-0.815,0.357-1.523,0.836-2.126,1.439c-0.604,0.604-1.082,1.311-1.441,2.127c-0.357,0.814-0.534,1.68-0.534,2.594v8.371h-1.674
			v-8.371c0-1.139,0.218-2.209,0.651-3.215c0.436-1.004,1.027-1.891,1.776-2.662c0.747-0.77,1.628-1.377,2.645-1.824
			C207.874,11.26,208.975,11.037,210.158,11.037z"/>
		<path fill="#AAAAAA" stroke="#AAAAAA" stroke-width="0.5" stroke-miterlimit="10" d="M228.908,11.037
			c1.161,0,2.255,0.217,3.282,0.652s1.914,1.027,2.662,1.775s1.339,1.637,1.774,2.662c0.435,1.027,0.653,2.121,0.653,3.281v8.371
			h-1.675v-3.348c-0.76,1.004-1.73,1.814-2.912,2.428c-1.185,0.613-2.444,0.92-3.785,0.92c-1.184,0-2.283-0.217-3.298-0.652
			c-1.017-0.436-1.898-1.027-2.646-1.773c-0.748-0.75-1.34-1.631-1.775-2.646s-0.651-2.115-0.651-3.299
			c0-1.16,0.216-2.254,0.651-3.281c0.436-1.025,1.027-1.914,1.775-2.662c0.747-0.748,1.629-1.34,2.646-1.775
			C226.625,11.254,227.725,11.037,228.908,11.037z M228.908,26.105c0.916,0,1.78-0.178,2.597-0.535
			c0.813-0.357,1.521-0.838,2.126-1.441c0.603-0.602,1.082-1.311,1.439-2.125c0.356-0.814,0.535-1.68,0.535-2.596
			c0-0.914-0.179-1.779-0.535-2.594c-0.357-0.816-0.837-1.523-1.439-2.127c-0.604-0.604-1.312-1.082-2.126-1.439
			c-0.816-0.357-1.681-0.537-2.597-0.537c-0.914,0-1.781,0.18-2.595,0.537c-0.816,0.357-1.523,0.836-2.127,1.439
			c-0.603,0.604-1.081,1.311-1.439,2.127c-0.357,0.814-0.536,1.68-0.536,2.594c0,0.916,0.179,1.781,0.536,2.596
			c0.358,0.814,0.837,1.523,1.439,2.125c0.604,0.604,1.311,1.084,2.127,1.441C227.127,25.928,227.994,26.105,228.908,26.105z"/>
		<path fill="#AAAAAA" stroke="#AAAAAA" stroke-width="0.5" stroke-miterlimit="10" d="M184.742,20.084
			c0.065,0.668,0.232,1.309,0.502,1.92c0.355,0.814,0.837,1.523,1.439,2.125c0.603,0.604,1.312,1.084,2.125,1.441
			c0.816,0.357,1.68,0.535,2.597,0.535c0.916,0,1.78-0.178,2.595-0.535c0.815-0.357,1.523-0.838,2.126-1.441
			c0.603-0.602,1.084-1.311,1.44-2.125c0.357-0.814,0.535-1.68,0.535-2.596c0-0.914-0.178-1.779-0.535-2.594
			c-0.356-0.816-0.838-1.523-1.44-2.127s-1.311-1.082-2.126-1.439c-0.814-0.357-1.679-0.537-2.595-0.537
			c-0.917,0-1.78,0.18-2.597,0.537c-0.729,0.32-1.37,0.744-1.931,1.264v-0.01l-1.078-1.357c0.001-0.004,1.078-1.012,2.308-1.455
			c1.039-0.373,2.114-0.652,3.298-0.652c1.159,0,2.254,0.217,3.281,0.652c1.026,0.436,1.914,1.027,2.662,1.775
			s1.339,1.637,1.775,2.662c0.435,1.027,0.651,2.121,0.651,3.281v8.371h-1.674v-3.348c-0.759,1.004-1.729,1.814-2.913,2.428
			c-1.183,0.613-2.444,0.92-3.783,0.92c-1.184,0-2.283-0.217-3.298-0.652c-1.017-0.436-1.898-1.027-2.646-1.773
			c-0.748-0.75-1.338-1.631-1.774-2.646c-0.165-0.385-0.296-0.777-0.398-1.186"/>
		<path fill="#AAAAAA" stroke="#AAAAAA" stroke-width="0.5" stroke-miterlimit="10" d="M183.954,19.732"/>
		<path fill="#AAAAAA" stroke="#AAAAAA" stroke-width="0.5" stroke-miterlimit="10" d="M182.402,21.219"/>
	</g>
</g>
</svg>
