<?xml version="1.0" encoding="utf-8"?>
<!-- Generator: Adobe Illustrator 16.0.0, SVG Export Plug-In . SVG Version: 6.00 Build 0)  -->
<!DOCTYPE svg PUBLIC "-//W3C//DTD SVG 1.1//EN" "http://www.w3.org/Graphics/SVG/1.1/DTD/svg11.dtd">
<svg version="1.1" id="Layer_1" xmlns="http://www.w3.org/2000/svg" xmlns:xlink="http://www.w3.org/1999/xlink" x="0px" y="0px"
	 width="90px" height="20px" viewBox="0 0 90 20" enable-background="new 0 0 90 20" xml:space="preserve">
<path fill="#FFFFFF" d="M39.001,5v10h10V5H39.001z M48,14c-3,0-5,0-8,0c0-2,0-4,0-6c3,0,5,0,8,0C48,10,48,12,48,14z"/>
<rect x="11" y="12.969" fill="#FFFFFF" width="7.938" height="2.031"/>
<rect x="67.956" y="8.973" transform="matrix(0.7071 0.7071 -0.7071 0.7071 28.7414 -49.3945)" fill="#FFFFFF" width="12.088" height="2.054"/>
<rect x="67.956" y="8.973" transform="matrix(0.7071 -0.7071 0.7071 0.7071 14.6004 55.2514)" fill="#FFFFFF" width="12.088" height="2.054"/>
</svg>
